<?xml version="1.0" encoding="UTF-8"?>
<!DOCTYPE svg PUBLIC "-//W3C//DTD SVG 1.1//EN" "http://www.w3.org/Graphics/SVG/1.1/DTD/svg11.dtd">
<!-- Creator: CorelDRAW 2020 (64-Bit) -->
<svg xmlns="http://www.w3.org/2000/svg" xml:space="preserve" width="1.11338in" height="0.309551in" version="1.1" style="shape-rendering:geometricPrecision; text-rendering:geometricPrecision; image-rendering:optimizeQuality; fill-rule:evenodd; clip-rule:evenodd"
viewBox="0 0 1113.38 309.55"
 xmlns:xlink="http://www.w3.org/1999/xlink"
 xmlns:xodm="http://www.corel.com/coreldraw/odm/2003">
 <defs>
  <style type="text/css">
   <![CDATA[
    .fil0 {fill:#373435}
    .fil2 {fill:#373435;fill-rule:nonzero}
    .fil1 {fill:#373435;fill-rule:nonzero}
   ]]>
  </style>
 </defs>
 <g id="Layer_x0020_1">
  <metadata id="CorelCorpID_0Corel-Layer"/>
  <g id="_2390965301200">
   <path class="fil0" d="M200.76 78.01l0 0c-2.93,-1.76 -5.97,-3.35 -9.1,-4.78l18.79 -44.3c8.87,3.93 17.24,8.76 25,14.39l13.38 -13.39 11.91 11.91 -12.23 12.22 0.06 0.06 -34.04 34.04 -0.06 -0.05 -0 0c-4.22,-3.79 -8.81,-7.19 -13.7,-10.12z"/>
   <path class="fil0" d="M60.98 54.14l0.06 -0.06 -12.23 -12.22 11.91 -11.91 13.38 13.39c7.76,-5.63 16.13,-10.47 24.99,-14.39l18.79 44.3c-3.14,1.42 -6.17,3.02 -9.11,4.78l0 0c-4.89,2.94 -9.48,6.33 -13.7,10.12l-0 -0 -0.06 0.06 -34.04 -34.04z"/>
   <path class="fil0" d="M29.94 60.72l11.91 -11.91 12.22 12.22 0.06 -0.06 34.04 34.04 -0.06 0.06 0 0c-3.79,4.22 -7.18,8.81 -10.12,13.71l0 -0c-1.76,2.93 -3.36,5.97 -4.78,9.11l-44.3 -18.79c3.93,-8.86 8.76,-17.24 14.39,-25l-13.39 -13.38z"/>
   <path class="fil0" d="M149.94 65.43l-0.08 0 0 0c-5.78,0.31 -11.41,1.18 -16.85,2.54l0 -0.01c-3.85,0.96 -7.6,2.17 -11.23,3.62l-18.79 -44.3c9.52,-3.87 19.57,-6.71 30.02,-8.38l0 -18.91 16.85 0 0 17.28 0.08 0 0 48.15z"/>
   <path class="fil0" d="M159.61 17.28l0.08 0 0 -17.28 16.84 0 0 18.91c10.44,1.67 20.5,4.5 30.02,8.38l-18.79 44.3c-3.63,-1.44 -7.38,-2.65 -11.23,-3.62l0 0.01c-5.43,-1.36 -11.07,-2.22 -16.84,-2.54l0 -0 -0.08 -0 0 -48.15z"/>
   <path class="fil0" d="M17.28 149.94l0 -0.07 -17.28 0 0 -16.85 18.91 0c1.66,-10.44 4.5,-20.5 8.37,-30.02l44.3 18.79c-1.44,3.63 -2.65,7.39 -3.61,11.23l0 0c-1.36,5.43 -2.22,11.07 -2.54,16.85l-0 0 -0 0.07 -48.15 0z"/>
   <path class="fil0" d="M54.14 248.57l-0.05 -0.06 -12.23 12.23 -11.91 -11.91 13.39 -13.38c-5.63,-7.76 -10.47,-16.13 -14.39,-25l44.3 -18.79c1.42,3.14 3.02,6.18 4.78,9.11l0 0c2.94,4.89 6.33,9.48 10.12,13.7l-0 0 0.05 0.06 -34.04 34.04z"/>
   <path class="fil0" d="M108.78 231.54l-0 0c2.93,1.76 5.97,3.36 9.11,4.78l-18.79 44.3c-8.86,-3.93 -17.23,-8.76 -24.99,-14.39l-13.38 13.38 -11.91 -11.91 12.22 -12.23 -0.06 -0.06 34.04 -34.04 0.06 0.06 0 -0c4.22,3.79 8.81,7.19 13.7,10.12z"/>
   <path class="fil0" d="M149.94 292.27l-0.08 0 0 17.28 -16.85 0 0 -18.91c-10.44,-1.66 -20.5,-4.5 -30.02,-8.37l18.79 -44.3c3.63,1.44 7.39,2.65 11.23,3.61l0 -0c5.44,1.35 11.07,2.22 16.85,2.53l0 0 0.08 0 0 48.15z"/>
   <path class="fil0" d="M176.53 241.58l0 0c3.85,-0.96 7.6,-2.17 11.23,-3.61l18.79 44.3c-9.52,3.87 -19.57,6.71 -30.02,8.37l0 18.91 -16.84 0 0 -17.28 -0.08 0 0 -48.15 0.08 -0 0 -0c5.78,-0.31 11.41,-1.17 16.84,-2.53z"/>
   <path class="fil0" d="M248.57 255.41l-0.06 0.06 12.23 12.23 -11.91 11.91 -13.38 -13.39c-7.76,5.63 -16.13,10.47 -25,14.4l-18.79 -44.3c3.13,-1.42 6.17,-3.02 9.1,-4.78l0 -0c4.89,-2.94 9.48,-6.33 13.7,-10.12l0 0 0.06 -0.06 34.04 34.04z"/>
   <path class="fil0" d="M67.97 176.54l-0 0c0.96,3.85 2.17,7.6 3.61,11.23l-44.3 18.79c-3.87,-9.52 -6.71,-19.58 -8.37,-30.02l-18.91 0 0 -16.85 17.28 0 0 -0.08 48.15 0 0 0.08 0 0c0.31,5.78 1.18,11.41 2.54,16.85z"/>
   <path class="fil0" d="M154.77 77.12c42.93,0 77.73,34.8 77.73,77.72 0,14.8 -4.13,28.63 -11.31,40.41 -4.22,-8.83 -9.91,-15.28 -16.37,-18.1 4.35,-2.51 7.28,-7.21 7.28,-12.6 0,-8.03 -6.51,-14.54 -14.53,-14.54 -8.03,0 -14.54,6.51 -14.54,14.54 0,5.35 2.89,10.02 7.2,12.55 -1.58,0.68 -3.11,1.57 -4.59,2.67 5.12,11.57 8.2,26.27 8.22,42.27 -1.95,1.13 -3.95,2.19 -6,3.15 0.13,-2.13 0.2,-4.28 0.2,-6.48 0,-25.68 -9.29,-47.4 -22.08,-54.65 7.24,-3.48 12.23,-10.89 12.23,-19.46 0,-11.92 -9.67,-21.59 -21.59,-21.59 -11.93,0 -21.59,9.67 -21.59,21.59 0,8.57 4.99,15.97 12.23,19.46 -12.79,7.25 -22.08,28.98 -22.08,54.65 0,2.77 0.11,5.5 0.32,8.16 -1.33,-0.49 -5.46,-2.46 -6.1,-2.79 -0.01,-0.61 -0.01,-1.22 -0.01,-1.83 0,-16.17 3.11,-31.01 8.3,-42.65 -1.46,-1.06 -2.98,-1.92 -4.54,-2.57 4.24,-2.54 7.07,-7.18 7.07,-12.47 0,-8.03 -6.51,-14.54 -14.53,-14.54 -8.03,0 -14.54,6.51 -14.54,14.54 0,5.44 2.99,10.19 7.42,12.67 -7.26,3.24 -13.53,11.07 -17.82,21.71 -8.65,-12.53 -13.71,-27.72 -13.71,-44.09 0,-42.93 34.8,-77.72 77.72,-77.72z"/>
   <path class="fil1" d="M273.85 225.72m0.19 -73.31c0.57,15.5 3.83,28.71 10.14,39.81 6.32,11.3 14.55,19.91 25.07,26.03 10.34,6.31 22.01,9.95 35.03,10.91 7.08,0.39 15.12,-0.76 24.12,-3.25 9,-2.68 17.61,-7.28 25.84,-13.59 8.23,-6.31 14.55,-14.74 18.95,-25.07l-30.63 0c-9.57,10.53 -21.24,16.08 -35.22,16.46 -12.44,-0.19 -23.55,-4.98 -33.12,-14.17 -9.57,-9 -14.35,-20.67 -14.35,-34.83 0,-8.04 2.11,-15.89 6.51,-23.35 4.4,-7.46 10.15,-13.4 17.61,-17.8 7.46,-4.4 15.12,-6.7 23.35,-6.7 13.78,0 26.03,5.93 36.94,17.61l29.67 0c-2.87,-8.61 -8.04,-16.08 -15.31,-22.78 -7.46,-6.5 -15.7,-11.48 -24.88,-15.12 -9.19,-3.45 -18.19,-5.17 -26.8,-5.17 -11.29,0 -21.63,2.3 -31.01,6.89 -9.38,4.79 -17.04,10.72 -23.35,18.19 -6.31,7.46 -10.91,15.5 -13.97,23.74 -3.25,8.23 -4.78,15.69 -4.59,22.2zm153.89 73.31m0 0l25.46 0 0 -58c0,-9.95 1.72,-16.84 5.36,-20.48 3.63,-3.64 9.38,-5.74 17.42,-6.7l0 -24.69c-11.3,-0.38 -19.52,4.02 -25.07,13.4l0 -9.76 -23.16 0 0 106.23zm56.46 0m0.19 -54.17c-0.19,10.72 1.72,20.48 6.13,29.09 4.4,8.81 10.53,15.7 18.76,20.87 8.23,5.17 17.42,7.65 27.56,7.65 6.7,0 13.59,-1.72 20.67,-5.17 7.08,-3.44 12.25,-7.66 15.89,-12.83l0 14.55 23.17 0 0 -106.23 -23.17 0 0 14.93c-2.87,-5.55 -7.65,-9.76 -14.16,-13.02 -6.7,-3.25 -13.97,-4.78 -22.01,-4.78 -8.61,0 -16.85,1.91 -24.89,5.93 -8.04,4.02 -14.55,10.33 -19.71,18.57 -5.17,8.23 -7.85,18.37 -8.23,30.43zm57.61 32.93c-8.23,0 -15.5,-2.87 -22.2,-8.61 -6.7,-5.55 -9.96,-13.21 -9.96,-22.78 0,-9.57 3.06,-17.23 9.19,-23.16 6.13,-5.74 13.59,-8.61 22.2,-8.61 8.61,0 16.08,2.87 22.2,8.42 6.12,5.55 9.19,13.2 9.19,22.97 0,9 -2.87,16.46 -8.42,22.39 -5.74,5.93 -13.21,9.19 -22.2,9.38zm64.7 21.24m0 -106.23l38.47 106.23 15.7 0 19.72 -68.72 20.67 68.72 15.31 0 38.47 -106.23 -26.8 0 -19.52 64.7 -17.61 -64.7 -20.1 0 -17.61 64.7 -19.91 -64.7 -26.8 0zm153.7 106.23m9 -106.23l-9 0 0 22.39 9 0 0 83.84 25.27 0 0 -83.84 14.74 0 0 -22.39 -14.74 0c0,-9 5.36,-13.21 16.08,-12.63l0 -25.07c-15.5,-1.72 -26.22,1.91 -32.16,10.91 -6.13,9.19 -9.19,18.19 -9.19,26.8zm47.66 106.23m14.55 -90.92c-9.38,11.1 -14.17,23.54 -14.55,37.52 0.38,15.69 5.93,29.09 16.84,40.2 10.91,11.1 24.12,16.65 40.01,16.65 10.14,0 19.52,-2.49 28.14,-7.85 8.61,-5.17 15.5,-12.06 20.67,-20.86 5.17,-8.61 7.66,-17.99 7.66,-28.14 0,-9.76 -2.49,-19.14 -7.66,-27.76 -5.17,-8.61 -12.25,-15.5 -20.86,-20.67 -8.61,-5.17 -17.8,-7.66 -27.56,-7.66 -15.5,0 -29.86,6.13 -42.69,18.57zm19.14 16.08c5.93,-6.32 13.4,-9.57 22.01,-9.57 5.93,0 11.29,1.34 16.08,4.21 4.59,2.87 8.23,6.51 10.91,11.3 2.68,4.78 4.02,10.33 4.02,16.27 0,8.8 -2.87,16.08 -8.42,22.01 -5.55,5.93 -13.02,9 -22.2,9.38 -8.61,-0.39 -15.69,-3.64 -21.44,-9.76 -5.74,-6.13 -8.81,-13.4 -9.19,-21.63 0.38,-8.23 3.06,-15.5 8.23,-22.2zm93.98 74.84m0 0l25.46 0 0 -58c0,-9.95 1.72,-16.84 5.36,-20.48 3.64,-3.64 9.38,-5.74 17.42,-6.7l0 -24.69c-11.29,-0.38 -19.52,4.02 -25.07,13.4l0 -9.76 -23.16 0 0 106.23zm56.66 0m85.94 -95.7c-4.4,-4.4 -9.19,-8.04 -14.35,-10.72 -5.17,-2.68 -11.29,-3.83 -18.37,-3.44 -8.81,0.38 -17.23,2.87 -25.46,7.46 -8.23,4.59 -14.93,11.1 -20.1,19.52 -5.17,8.61 -7.65,18.57 -7.65,30.24 0,10.15 2.49,19.33 7.46,27.94 4.98,8.61 11.48,15.51 19.72,20.48 8.23,5.17 16.65,7.65 25.65,7.65 5.94,0 12.44,-1.72 19.91,-4.98 7.27,-3.25 12.63,-7.85 15.89,-13.78l0 15.31 23.16 0 0 -141.65 -25.84 0 0 45.94zm-60.48 41.54c-0.19,-5.55 1.34,-10.53 4.21,-15.31 2.87,-4.59 6.7,-8.23 11.48,-10.91 4.78,-2.68 9.76,-4.21 14.93,-4.4 8.61,0 16.08,3.06 22.59,9.19 6.31,6.13 9.38,13.21 8.8,21.44 -0.57,10.15 -4.02,18.19 -10.33,24.12 -6.31,5.93 -13.59,8.61 -21.82,8.42 -7.85,-0.19 -14.74,-3.44 -20.67,-9.57 -5.93,-5.94 -9,-13.59 -9.19,-22.97z"/>
  </g>
  <polygon class="fil2" points="777.5,305.83 777.5,256.29 810.92,256.29 810.92,262.1 784.08,262.1 784.08,277.53 807.32,277.53 807.32,283.34 784.08,283.34 784.08,305.83 "/>
  <path id="1" class="fil2" d="M816.38 287.87c0,-6.63 1.85,-11.54 5.55,-14.74 3.08,-2.65 6.85,-3.98 11.29,-3.98 4.93,0 8.96,1.61 12.1,4.84 3.13,3.22 4.69,7.68 4.69,13.37 0,4.61 -0.69,8.23 -2.07,10.87 -1.39,2.64 -3.4,4.69 -6.06,6.16 -2.64,1.46 -5.54,2.19 -8.66,2.19 -5.03,0 -9.09,-1.6 -12.19,-4.82 -3.1,-3.22 -4.65,-7.85 -4.65,-13.89zm6.23 0.01c0,4.59 1,8.03 3.01,10.3 2.02,2.28 4.54,3.43 7.6,3.43 3.02,0 5.54,-1.14 7.56,-3.44 2,-2.3 3.01,-5.79 3.01,-10.48 0,-4.43 -1.02,-7.78 -3.03,-10.06 -2.02,-2.28 -4.53,-3.43 -7.53,-3.43 -3.06,0 -5.58,1.13 -7.6,3.4 -2.01,2.27 -3.01,5.7 -3.01,10.27z"/>
  <path id="2" class="fil2" d="M880.59 305.83l0 -5.34c-2.79,4.07 -6.57,6.1 -11.36,6.1 -2.11,0 -4.08,-0.4 -5.91,-1.21 -1.83,-0.82 -3.2,-1.83 -4.08,-3.06 -0.89,-1.24 -1.51,-2.74 -1.87,-4.51 -0.24,-1.2 -0.37,-3.09 -0.37,-5.67l0 -22.22 6.09 0 0 19.87c0,3.17 0.13,5.31 0.37,6.41 0.38,1.6 1.19,2.85 2.43,3.76 1.23,0.91 2.76,1.37 4.58,1.37 1.82,0 3.53,-0.46 5.12,-1.4 1.59,-0.93 2.72,-2.21 3.39,-3.81 0.66,-1.6 0.99,-3.94 0.99,-7l0 -19.2 6.09 0 0 35.91 -5.47 0z"/>
  <path id="3" class="fil2" d="M895.62 305.83l0 -35.91 5.46 0 0 5.1c2.63,-3.91 6.44,-5.86 11.41,-5.86 2.17,0 4.15,0.39 5.96,1.17 1.81,0.77 3.17,1.8 4.07,3.06 0.9,1.26 1.54,2.76 1.89,4.48 0.22,1.13 0.33,3.1 0.33,5.92l0 22.05 -6.09 0 0 -21.82c0,-2.48 -0.23,-4.33 -0.7,-5.56 -0.47,-1.22 -1.31,-2.2 -2.51,-2.94 -1.2,-0.73 -2.62,-1.1 -4.23,-1.1 -2.58,0 -4.81,0.82 -6.69,2.47 -1.88,1.64 -2.81,4.76 -2.81,9.35l0 19.59 -6.09 0z"/>
  <path id="4" class="fil2" d="M957.28 305.83l0 -4.56c-2.27,3.54 -5.61,5.31 -10.03,5.31 -2.86,0 -5.49,-0.78 -7.88,-2.36 -2.4,-1.57 -4.25,-3.77 -5.58,-6.59 -1.31,-2.82 -1.97,-6.06 -1.97,-9.73 0,-3.57 0.6,-6.81 1.79,-9.73 1.2,-2.91 2.99,-5.14 5.37,-6.69 2.37,-1.56 5.05,-2.33 7.99,-2.33 2.17,0 4.09,0.46 5.78,1.37 1.69,0.91 3.06,2.11 4.12,3.57l0 -17.81 6.09 0 0 49.54 -5.67 0zm-19.23 -17.91c0,4.59 0.97,8.02 2.92,10.29 1.94,2.27 4.23,3.4 6.87,3.4 2.67,0 4.93,-1.08 6.8,-3.25 1.85,-2.17 2.79,-5.48 2.79,-9.93 0,-4.89 -0.94,-8.49 -2.85,-10.78 -1.89,-2.3 -4.23,-3.44 -7.01,-3.44 -2.71,0 -4.97,1.09 -6.79,3.3 -1.81,2.2 -2.72,5.67 -2.72,10.41z"/>
  <path id="5" class="fil2" d="M996.04 301.33c-2.26,1.93 -4.44,3.28 -6.52,4.07 -2.09,0.8 -4.33,1.19 -6.72,1.19 -3.94,0 -6.98,-0.96 -9.1,-2.88 -2.12,-1.91 -3.18,-4.37 -3.18,-7.36 0,-1.75 0.4,-3.35 1.2,-4.81 0.81,-1.45 1.86,-2.61 3.15,-3.48 1.3,-0.87 2.76,-1.54 4.38,-1.99 1.2,-0.31 3.01,-0.61 5.42,-0.91 4.91,-0.57 8.54,-1.28 10.86,-2.09 0.02,-0.83 0.03,-1.36 0.03,-1.58 0,-2.47 -0.57,-4.21 -1.73,-5.22 -1.56,-1.37 -3.87,-2.05 -6.94,-2.05 -2.87,0 -4.99,0.51 -6.35,1.51 -1.37,1 -2.37,2.78 -3.03,5.34l-5.95 -0.83c0.54,-2.55 1.43,-4.61 2.68,-6.18 1.24,-1.57 3.04,-2.77 5.4,-3.62 2.34,-0.84 5.07,-1.27 8.16,-1.27 3.07,0 5.57,0.36 7.5,1.08 1.91,0.73 3.33,1.63 4.23,2.72 0.9,1.1 1.54,2.48 1.9,4.15 0.2,1.04 0.3,2.91 0.3,5.59l0 8.07c0,5.64 0.13,9.2 0.38,10.71 0.24,1.51 0.75,2.95 1.49,4.33l-6.37 0c-0.61,-1.28 -1,-2.78 -1.18,-4.5zm-0.48 -13.49c-2.21,0.9 -5.53,1.66 -9.96,2.28 -2.52,0.36 -4.29,0.76 -5.33,1.21 -1.04,0.45 -1.83,1.11 -2.4,1.96 -0.56,0.87 -0.85,1.82 -0.85,2.88 0,1.61 0.61,2.95 1.84,4.03 1.24,1.07 3.04,1.61 5.4,1.61 2.34,0 4.43,-0.51 6.26,-1.54 1.82,-1.02 3.17,-2.41 4.03,-4.17 0.66,-1.37 0.98,-3.39 0.98,-6.06l0.03 -2.21z"/>
  <path id="6" class="fil2" d="M1024.28 300.39l0.83 5.37c-1.7,0.36 -3.24,0.54 -4.57,0.54 -2.2,0 -3.91,-0.35 -5.13,-1.05 -1.21,-0.7 -2.06,-1.61 -2.56,-2.76 -0.5,-1.14 -0.74,-3.54 -0.74,-7.19l0 -20.69 -4.5 0 0 -4.7 4.5 0 0 -8.88 6.09 -3.66 0 12.54 6.09 0 0 4.7 -6.09 0 0 21.04c0,1.74 0.1,2.86 0.32,3.35 0.21,0.5 0.56,0.89 1.04,1.19 0.48,0.29 1.17,0.44 2.07,0.44 0.67,0 1.56,-0.08 2.65,-0.24z"/>
  <path id="7" class="fil2" d="M1030.29 263.2l0 -6.92 6.09 0 0 6.92 -6.09 0zm0 42.62l0 -35.91 6.09 0 0 35.91 -6.09 0z"/>
  <path id="8" class="fil2" d="M1043.37 287.87c0,-6.63 1.85,-11.54 5.55,-14.74 3.08,-2.65 6.85,-3.98 11.29,-3.98 4.93,0 8.96,1.61 12.1,4.84 3.13,3.22 4.69,7.68 4.69,13.37 0,4.61 -0.69,8.23 -2.07,10.87 -1.39,2.64 -3.4,4.69 -6.06,6.16 -2.64,1.46 -5.54,2.19 -8.66,2.19 -5.03,0 -9.09,-1.6 -12.19,-4.82 -3.1,-3.22 -4.65,-7.85 -4.65,-13.89zm6.23 0.01c0,4.59 1,8.03 3.01,10.3 2.02,2.28 4.54,3.43 7.6,3.43 3.02,0 5.54,-1.14 7.56,-3.44 2,-2.3 3.01,-5.79 3.01,-10.48 0,-4.43 -1.02,-7.78 -3.03,-10.06 -2.02,-2.28 -4.53,-3.43 -7.53,-3.43 -3.06,0 -5.58,1.13 -7.6,3.4 -2.01,2.27 -3.01,5.7 -3.01,10.27z"/>
  <path id="9" class="fil2" d="M1084.14 305.83l0 -35.91 5.46 0 0 5.1c2.63,-3.91 6.44,-5.86 11.41,-5.86 2.17,0 4.15,0.39 5.96,1.17 1.81,0.77 3.17,1.8 4.07,3.06 0.9,1.26 1.54,2.76 1.89,4.48 0.22,1.13 0.33,3.1 0.33,5.92l0 22.05 -6.09 0 0 -21.82c0,-2.48 -0.23,-4.33 -0.7,-5.56 -0.47,-1.22 -1.31,-2.2 -2.51,-2.94 -1.2,-0.73 -2.62,-1.1 -4.23,-1.1 -2.58,0 -4.81,0.82 -6.69,2.47 -1.88,1.64 -2.81,4.76 -2.81,9.35l0 19.59 -6.09 0z"/>
 </g>
</svg>
