<?xml version="1.0" encoding="UTF-8"?>
<!DOCTYPE svg PUBLIC "-//W3C//DTD SVG 1.1//EN" "http://www.w3.org/Graphics/SVG/1.1/DTD/svg11.dtd">
<!-- Creator: CorelDRAW 2021 (64-Bit) -->
<svg xmlns="http://www.w3.org/2000/svg" xml:space="preserve" width="4.4767in" height="0.949291in" version="1.1" style="shape-rendering:geometricPrecision; text-rendering:geometricPrecision; image-rendering:optimizeQuality; fill-rule:evenodd; clip-rule:evenodd"
viewBox="0 0 504.7 107.02"
 xmlns:xlink="http://www.w3.org/1999/xlink"
 xmlns:xodm="http://www.corel.com/coreldraw/odm/2003">
 <defs>
  <style type="text/css">
   <![CDATA[
    .fil1 {fill:black;fill-rule:nonzero}
    .fil0 {fill:#F26522;fill-rule:nonzero}
   ]]>
  </style>
 </defs>
 <g id="Layer_x0020_1">
  <metadata id="CorelCorpID_0Corel-Layer"/>
  <g id="_1513704495360">
   <path class="fil0" d="M366.35 14.38l10.08 5.74c0,0 1.88,1.01 2.17,3.47 0.29,2.46 0,8.92 0,8.92 0,0 0.1,1.4 -1.93,1.21l-10.61 -6.08c0,0 -1.93,-1.54 -1.98,-3.57l0 -8.49c0,0 0.34,-2.32 2.27,-1.21z"/>
   <path class="fil0" d="M381.05 33.44l10.08 -5.74c0,0 1.88,-1.01 2.17,-3.47 0.29,-2.46 0,-8.92 0,-8.92 0,0 0.1,-1.4 -1.93,-1.21l-10.61 6.08c0,0 -1.93,1.54 -1.98,3.57l0 8.49c0,0 0.34,2.32 2.27,1.21z"/>
   <path class="fil0" d="M386.3 7.44c0,4.11 -3.33,7.44 -7.44,7.44 -4.11,0 -7.44,-3.33 -7.44,-7.44 0,-4.11 3.33,-7.44 7.44,-7.44 4.11,0 7.44,3.33 7.44,7.44z"/>
   <polygon class="fil0" points="54.67,66.39 18.72,66.39 18.72,90.73 60.91,90.73 60.91,105.77 -0,105.77 -0,14.91 60.79,14.91 60.79,30.07 18.72,30.07 18.72,51.73 54.67,51.73 "/>
   <path class="fil0" d="M84.75 72.82c0,2.75 0.23,5.3 0.69,7.68 0.46,2.37 1.2,4.44 2.22,6.21 1.02,1.77 2.35,3.16 3.99,4.18 1.64,1.02 3.65,1.53 6.02,1.53 2.91,0 5.34,-0.62 7.27,-1.87 1.93,-1.25 3.44,-2.97 4.52,-5.18l0 -26.65c-1.08,-2.25 -2.59,-3.98 -4.52,-5.21 -1.93,-1.23 -4.32,-1.84 -7.15,-1.84 -2.37,0 -4.39,0.51 -6.05,1.53 -1.66,1.02 -3.01,2.42 -4.03,4.21 -1.02,1.79 -1.77,3.89 -2.25,6.3 -0.48,2.41 -0.72,5.01 -0.72,7.8l0 1.31zm-18.04 -1.31c0,-5.12 0.59,-9.8 1.78,-14.04 1.19,-4.24 2.9,-7.88 5.15,-10.92 2.25,-3.04 5.01,-5.39 8.3,-7.05 3.29,-1.66 7.03,-2.5 11.23,-2.5 3.45,0 6.52,0.65 9.21,1.93 2.68,1.29 5.04,3.1 7.08,5.43l0 -34.45 18.1 0 0 95.86 -16.29 0 -0.87 -7.18c-2.12,2.66 -4.6,4.73 -7.43,6.21 -2.83,1.48 -6.14,2.22 -9.92,2.22 -4.16,0 -7.87,-0.86 -11.14,-2.59 -3.27,-1.73 -6.02,-4.11 -8.27,-7.15 -2.25,-3.04 -3.96,-6.65 -5.15,-10.83 -1.19,-4.18 -1.78,-8.73 -1.78,-13.64l0 -1.31z"/>
   <path class="fil0" d="M181.99 98.91c-2.12,2.58 -4.7,4.58 -7.74,5.99 -3.04,1.41 -6.62,2.12 -10.74,2.12 -3.33,0 -6.37,-0.47 -9.11,-1.4 -2.75,-0.94 -5.11,-2.41 -7.08,-4.43 -1.98,-2.02 -3.51,-4.62 -4.59,-7.8 -1.08,-3.18 -1.62,-7 -1.62,-11.45l0 -43.69 18.04 0 0 43.82c0,1.87 0.24,3.48 0.72,4.81 0.48,1.33 1.14,2.4 2,3.21 0.85,0.81 1.86,1.4 3.03,1.78 1.16,0.37 2.45,0.56 3.87,0.56 3.25,0 5.89,-0.56 7.93,-1.69 2.04,-1.12 3.6,-2.68 4.68,-4.68l0 -47.81 18.1 0 0 67.54 -16.98 0 -0.5 -6.87z"/>
   <path class="fil1" d="M283.02 14.91l0 59.97c0,5.24 -0.87,9.87 -2.62,13.89 -1.75,4.02 -4.16,7.38 -7.24,10.08 -3.08,2.71 -6.75,4.74 -11.01,6.12 -4.27,1.37 -8.91,2.06 -13.95,2.06 -5.08,0 -9.75,-0.69 -14.01,-2.06 -4.26,-1.37 -7.94,-3.41 -11.02,-6.12 -3.08,-2.7 -5.48,-6.06 -7.21,-10.08 -1.73,-4.01 -2.59,-8.64 -2.59,-13.89l0 -59.97 18.72 0 0 59.97c0,5.95 1.42,10.29 4.28,13.01 2.85,2.73 6.79,4.09 11.83,4.09 5.08,0 9.02,-1.36 11.83,-4.09 2.81,-2.72 4.21,-7.06 4.21,-13.01l0 -59.97 18.79 0z"/>
   <path class="fil1" d="M313.79 38.25l0.56 7.8c2.33,-2.91 5.14,-5.15 8.43,-6.71 3.29,-1.56 6.95,-2.34 10.98,-2.34 3.2,0 6.12,0.45 8.74,1.34 2.62,0.89 4.87,2.36 6.74,4.4 1.87,2.04 3.32,4.7 4.34,7.99 1.02,3.29 1.53,7.32 1.53,12.11l0 42.94 -18.04 0 0 -43.06c0,-2.16 -0.24,-3.95 -0.72,-5.37 -0.48,-1.41 -1.18,-2.54 -2.09,-3.37 -0.92,-0.83 -2.04,-1.42 -3.37,-1.78 -1.33,-0.35 -2.87,-0.53 -4.62,-0.53 -2.66,0 -4.94,0.58 -6.83,1.75 -1.89,1.17 -3.42,2.75 -4.59,4.74l0 47.62 -18.04 0 0 -67.53 16.98 0z"/>
   <polygon class="fil1" points="387.81,105.77 369.71,105.77 369.71,38.25 387.81,38.25 "/>
   <path class="fil1" d="M424.25 21.65l0 16.6 11.55 0 0 13.23 -11.55 0 0 33.7c0,1.41 0.15,2.58 0.44,3.49 0.29,0.92 0.73,1.63 1.31,2.15 0.58,0.52 1.3,0.87 2.15,1.06 0.85,0.19 1.86,0.28 3.03,0.28 1.08,0 2.07,-0.04 2.96,-0.12 0.89,-0.08 1.67,-0.19 2.34,-0.31l0 13.67c-1.5,0.46 -3.13,0.84 -4.9,1.15 -1.77,0.31 -3.78,0.47 -6.02,0.47 -2.95,0 -5.62,-0.36 -7.99,-1.09 -2.37,-0.73 -4.4,-1.88 -6.08,-3.46 -1.69,-1.58 -2.99,-3.64 -3.9,-6.18 -0.92,-2.54 -1.37,-5.6 -1.37,-9.17l0 -35.64 -9.86 0 0 -13.23 9.86 0 0 -16.6 18.04 0z"/>
   <path class="fil1" d="M474.86 51.6c-1.96,0 -3.67,0.34 -5.15,1.03 -1.48,0.69 -2.75,1.64 -3.81,2.87 -1.06,1.23 -1.92,2.69 -2.59,4.4 -0.67,1.71 -1.14,3.6 -1.43,5.68l25.09 0 0 -1.44c-0.04,-1.79 -0.3,-3.45 -0.78,-4.99 -0.48,-1.54 -1.21,-2.87 -2.18,-3.99 -0.98,-1.12 -2.23,-2 -3.74,-2.62 -1.52,-0.62 -3.32,-0.94 -5.4,-0.94zm2.06 55.42c-5.24,0 -9.93,-0.85 -14.07,-2.56 -4.14,-1.71 -7.66,-4.03 -10.55,-6.99 -2.89,-2.95 -5.1,-6.42 -6.62,-10.39 -1.52,-3.97 -2.28,-8.23 -2.28,-12.76l0 -2.43c0,-5.12 0.74,-9.81 2.22,-14.07 1.48,-4.26 3.58,-7.94 6.3,-11.02 2.72,-3.08 6.03,-5.48 9.92,-7.21 3.89,-1.73 8.25,-2.59 13.07,-2.59 4.87,0 9.15,0.8 12.86,2.4 3.7,1.6 6.81,3.85 9.33,6.74 2.52,2.89 4.41,6.38 5.68,10.45 1.27,4.08 1.9,8.61 1.9,13.6l0 7.68 -43 0c0.29,2.21 0.88,4.2 1.78,5.99 0.89,1.79 2.04,3.32 3.43,4.59 1.39,1.27 3.03,2.26 4.9,2.96 1.87,0.71 3.97,1.06 6.3,1.06 3.29,0 6.32,-0.61 9.11,-1.84 2.79,-1.23 5.18,-3.13 7.18,-5.71l8.86 9.92c-1.08,1.54 -2.43,3.04 -4.06,4.49 -1.62,1.46 -3.54,2.76 -5.74,3.9 -2.21,1.14 -4.69,2.06 -7.46,2.75 -2.77,0.69 -5.79,1.03 -9.08,1.03z"/>
  </g>
 </g>
</svg>
